<svg width="100" height="100" viewBox="0 0 100 100" xmlns="http://www.w3.org/2000/svg">
  <defs>
    <pattern id="grid" width="20" height="20" patternUnits="userSpaceOnUse">
      <path d="M 20 0 L 0 0 0 20" fill="none" stroke="currentColor" stroke-width="0.5" opacity="0.3"/>
    </pattern>
    
    <pattern id="nodes" width="100" height="100" patternUnits="userSpaceOnUse">
      <!-- Nodes -->
      <circle cx="10" cy="10" r="2" fill="currentColor" opacity="0.6"/>
      <circle cx="30" cy="30" r="2" fill="currentColor" opacity="0.6"/>
      <circle cx="50" cy="10" r="2" fill="currentColor" opacity="0.6"/>
      <circle cx="70" cy="50" r="2" fill="currentColor" opacity="0.6"/>
      <circle cx="90" cy="90" r="2" fill="currentColor" opacity="0.6"/>
      <circle cx="10" cy="70" r="2" fill="currentColor" opacity="0.6"/>
      <circle cx="50" cy="50" r="2" fill="currentColor" opacity="0.6"/>
      <circle cx="90" cy="30" r="2" fill="currentColor" opacity="0.6"/>
      
      <!-- Connections (neural network-like) -->
      <path d="M 10 10 L 30 30 L 50 50 L 70 50 L 90 30" fill="none" stroke="currentColor" stroke-width="0.5" opacity="0.3"/>
      <path d="M 10 70 L 50 50 L 90 90" fill="none" stroke="currentColor" stroke-width="0.5" opacity="0.3"/>
      <path d="M 50 10 L 50 50" fill="none" stroke="currentColor" stroke-width="0.5" opacity="0.3"/>
    </pattern>
  </defs>
  
  <rect width="100" height="100" fill="url(#grid)"/>
  <rect width="100" height="100" fill="url(#nodes)"/>
</svg> 